<svg width="435" height="45" viewBox="0 0 435 45" fill="none" xmlns="http://www.w3.org/2000/svg">
<path fill-rule="evenodd" clip-rule="evenodd" d="M425.722 16.7805C424.309 17.6455 422.641 18.1451 420.854 18.1451C415.759 18.1451 411.628 14.0832 411.628 9.07256C411.628 4.06192 415.759 0 420.854 0C425.949 0 430.08 4.06192 430.08 9.07256C430.08 11.4504 429.149 13.6146 427.627 15.2324L434.64 22.1285C435.12 22.6009 435.12 23.3668 434.64 23.8392C434.159 24.3116 433.38 24.3116 432.9 23.8392L425.722 16.7805ZM427.619 9.07256C427.619 12.747 424.59 15.7258 420.854 15.7258C417.117 15.7258 414.088 12.747 414.088 9.07256C414.088 5.39809 417.117 2.41935 420.854 2.41935C424.59 2.41935 427.619 5.39809 427.619 9.07256Z" fill="white"/>
<path d="M16.9411 23.5709C15.6131 23.5709 14.4131 23.4029 13.3411 23.0669C12.2691 22.7149 11.3411 22.2109 10.5571 21.5549L11.2531 19.9709C12.0691 20.5949 12.9251 21.0589 13.8211 21.3629C14.7171 21.6669 15.7571 21.8189 16.9411 21.8189C18.3811 21.8189 19.4451 21.5549 20.1331 21.0269C20.8371 20.4829 21.1891 19.7709 21.1891 18.8909C21.1891 18.1869 20.9331 17.6269 20.4211 17.2109C19.9251 16.7949 19.0851 16.4669 17.9011 16.2269L15.4051 15.7229C13.9011 15.4029 12.7731 14.8829 12.0211 14.1629C11.2851 13.4269 10.9171 12.4509 10.9171 11.2349C10.9171 10.2269 11.1731 9.34686 11.6851 8.59486C12.2131 7.84286 12.9411 7.25886 13.8691 6.84286C14.7971 6.42686 15.8691 6.21886 17.0851 6.21886C18.2211 6.21886 19.2771 6.40286 20.2531 6.77086C21.2291 7.12286 22.0531 7.63486 22.7251 8.30686L22.0291 9.84286C21.3091 9.18686 20.5491 8.71486 19.7491 8.42686C18.9491 8.12286 18.0531 7.97086 17.0611 7.97086C15.7971 7.97086 14.7891 8.26686 14.0371 8.85886C13.2851 9.43486 12.9091 10.2029 12.9091 11.1629C12.9091 11.9309 13.1411 12.5389 13.6051 12.9869C14.0851 13.4349 14.8611 13.7629 15.9331 13.9709L18.4291 14.4989C20.0451 14.8349 21.2371 15.3469 22.0051 16.0349C22.7891 16.7069 23.1811 17.6269 23.1811 18.7949C23.1811 19.7389 22.9251 20.5709 22.4131 21.2909C21.9171 22.0109 21.1971 22.5709 20.2531 22.9709C19.3251 23.3709 18.2211 23.5709 16.9411 23.5709ZM31.2267 23.5709C29.3867 23.5709 27.9307 23.0349 26.8587 21.9629C25.7867 20.8749 25.2507 19.4029 25.2507 17.5469C25.2507 16.3469 25.4907 15.2909 25.9707 14.3789C26.4507 13.4509 27.1067 12.7389 27.9387 12.2429C28.7867 11.7309 29.7627 11.4749 30.8667 11.4749C32.4507 11.4749 33.6907 11.9869 34.5867 13.0109C35.4827 14.0189 35.9307 15.4109 35.9307 17.1869V17.9309H27.1467C27.2107 19.2589 27.5947 20.2749 28.2987 20.9789C29.0027 21.6669 29.9787 22.0109 31.2267 22.0109C31.9307 22.0109 32.6027 21.9069 33.2427 21.6989C33.8827 21.4749 34.4907 21.1149 35.0667 20.6189L35.7387 21.9869C35.2107 22.4829 34.5387 22.8749 33.7227 23.1629C32.9067 23.4349 32.0747 23.5709 31.2267 23.5709ZM30.9147 12.9149C29.8107 12.9149 28.9387 13.2589 28.2987 13.9469C27.6587 14.6349 27.2827 15.5389 27.1707 16.6589H34.2507C34.2027 15.4749 33.8907 14.5549 33.3147 13.8989C32.7547 13.2429 31.9547 12.9149 30.9147 12.9149ZM42.4162 23.5709C41.6162 23.5709 40.8962 23.4189 40.2562 23.1149C39.6322 22.7949 39.1362 22.3629 38.7682 21.8189C38.4002 21.2749 38.2162 20.6669 38.2162 19.9949C38.2162 19.1469 38.4322 18.4749 38.8642 17.9789C39.3122 17.4829 40.0402 17.1309 41.0482 16.9229C42.0722 16.6989 43.4642 16.5869 45.2242 16.5869H45.9922V15.8429C45.9922 14.8509 45.7842 14.1389 45.3682 13.7069C44.9682 13.2589 44.3202 13.0349 43.4242 13.0349C42.7202 13.0349 42.0402 13.1389 41.3842 13.3469C40.7282 13.5389 40.0562 13.8589 39.3682 14.3069L38.6962 12.8909C39.3042 12.4589 40.0402 12.1149 40.9042 11.8589C41.7842 11.6029 42.6242 11.4749 43.4242 11.4749C44.9282 11.4749 46.0402 11.8429 46.7602 12.5789C47.4962 13.3149 47.8642 14.4589 47.8642 16.0109V23.3549H46.0402V21.3389C45.7362 22.0269 45.2642 22.5709 44.6242 22.9709C44.0002 23.3709 43.2642 23.5709 42.4162 23.5709ZM42.7282 22.1069C43.6882 22.1069 44.4722 21.7789 45.0802 21.1229C45.6882 20.4509 45.9922 19.6029 45.9922 18.5789V17.8589H45.2482C43.9522 17.8589 42.9282 17.9229 42.1762 18.0509C41.4402 18.1629 40.9202 18.3709 40.6162 18.6749C40.3282 18.9629 40.1842 19.3629 40.1842 19.8749C40.1842 20.5309 40.4082 21.0669 40.8562 21.4829C41.3202 21.8989 41.9442 22.1069 42.7282 22.1069ZM51.4707 23.3549V11.6909H53.3667V13.7789C53.9907 12.3709 55.2707 11.5949 57.2067 11.4509L57.9027 11.3789L58.0467 13.0589L56.8227 13.2029C55.7187 13.2989 54.8787 13.6509 54.3027 14.2589C53.7267 14.8509 53.4387 15.6669 53.4387 16.7069V23.3549H51.4707ZM64.8757 23.5709C63.7077 23.5709 62.6997 23.3229 61.8517 22.8269C61.0037 22.3149 60.3477 21.6029 59.8837 20.6909C59.4357 19.7629 59.2117 18.6829 59.2117 17.4509C59.2117 15.5949 59.7157 14.1389 60.7237 13.0829C61.7317 12.0109 63.1157 11.4749 64.8757 11.4749C65.5957 11.4749 66.3077 11.6029 67.0117 11.8589C67.7157 12.1149 68.2997 12.4749 68.7637 12.9389L68.0917 14.3549C67.6277 13.9069 67.1157 13.5789 66.5557 13.3709C66.0117 13.1629 65.4917 13.0589 64.9957 13.0589C63.7797 13.0589 62.8437 13.4429 62.1877 14.2109C61.5317 14.9629 61.2037 16.0509 61.2037 17.4749C61.2037 18.8669 61.5317 19.9709 62.1877 20.7869C62.8437 21.5869 63.7797 21.9869 64.9957 21.9869C65.4917 21.9869 66.0117 21.8829 66.5557 21.6749C67.1157 21.4669 67.6277 21.1309 68.0917 20.6669L68.7637 22.0829C68.2997 22.5469 67.7077 22.9149 66.9877 23.1869C66.2837 23.4429 65.5797 23.5709 64.8757 23.5709ZM71.041 23.3549V6.43486H72.985V13.6109C73.369 12.9069 73.905 12.3789 74.593 12.0269C75.297 11.6589 76.081 11.4749 76.945 11.4749C79.713 11.4749 81.097 13.0109 81.097 16.0829V23.3549H79.153V16.2029C79.153 15.1149 78.937 14.3229 78.505 13.8269C78.089 13.3149 77.417 13.0589 76.489 13.0589C75.417 13.0589 74.561 13.3949 73.921 14.0669C73.297 14.7229 72.985 15.6029 72.985 16.7069V23.3549H71.041Z" fill="white"/>
<line x1="3.74695e-08" y1="44.5" x2="427.881" y2="44.5" stroke="white"/>
</svg>
